<svg width="96" height="96" viewBox="0 0 96 96" fill="none" xmlns="http://www.w3.org/2000/svg">
<path d="M16.124 12L12 16.124L79.876 84.004L84 79.872L16.124 12Z" fill="black"/>
<path d="M48.624 36.032L59.984 47.388C59.8263 44.4263 58.5788 41.6276 56.4816 39.5304C54.3844 37.4332 51.5857 36.1857 48.624 36.028V36.032Z" fill="black"/>
<path d="M47.372 59.98L36.012 48.624C36.1688 51.586 37.416 54.3852 39.5134 56.4826C41.6108 58.58 44.41 59.8272 47.372 59.984V59.98Z" fill="black"/>
<path d="M48 65.984C45.231 65.9838 42.4994 65.3448 40.0176 64.1166C37.5359 62.8884 35.371 61.1042 33.6913 58.9028C32.0116 56.7014 30.8624 54.1422 30.3332 51.4242C29.804 48.7062 29.909 45.9028 30.64 43.232L17.684 30.28C12.396 35.128 7.356 41.448 3 47.984C7.952 56.236 14.732 64.716 21.788 69.584C29.884 75.156 38.688 77.984 47.956 77.984C53.0205 77.9879 58.0472 77.1123 62.812 75.396L52.76 65.348C51.208 65.772 49.608 65.988 48 65.988V65.984Z" fill="black"/>
<path d="M48 30C50.769 30.0002 53.5006 30.6393 55.9824 31.8675C58.4641 33.0956 60.629 34.8798 62.3087 37.0812C63.9884 39.2826 65.1375 41.8418 65.6668 44.5598C66.196 47.2778 66.091 50.0812 65.36 52.752L78.608 66C84.076 61.08 89.124 54.456 93 48C88.052 39.856 81.204 31.396 74.028 26.472C65.828 20.852 57.056 18 47.952 18C42.9429 18.0075 37.9759 18.9153 33.288 20.68L43.248 30.64C44.796 30.212 46.392 30 48 30V30Z" fill="black"/>
</svg>
