<svg width="71" height="71" viewBox="0 0 71 71" fill="none" xmlns="http://www.w3.org/2000/svg">
<path d="M35.5 44.375C37.8538 44.375 40.1112 43.44 41.7756 41.7756C43.44 40.1112 44.375 37.8538 44.375 35.5C44.375 33.1462 43.44 30.8888 41.7756 29.2244C40.1112 27.56 37.8538 26.625 35.5 26.625C33.1462 26.625 30.8888 27.56 29.2244 29.2244C27.56 30.8888 26.625 33.1462 26.625 35.5C26.625 37.8538 27.56 40.1112 29.2244 41.7756C30.8888 43.44 33.1462 44.375 35.5 44.375V44.375Z" fill="black"/>
<path d="M68.0712 33.086C64.3999 27.4119 59.64 22.5928 54.3031 19.1463C48.3983 15.3301 41.8811 13.3125 35.4556 13.3125C29.5596 13.3125 23.7613 14.9987 18.2233 18.321C12.5729 21.7082 7.45498 26.6575 3.01452 33.0298C2.51265 33.7499 2.23625 34.603 2.22044 35.4806C2.20464 36.3582 2.45015 37.2207 2.92577 37.9584C6.58819 43.6887 11.2979 48.5167 16.5519 51.9158C22.4685 55.7468 28.8319 57.6875 35.4556 57.6875C41.9344 57.6875 48.4634 55.6877 54.3416 51.901C59.6755 48.4693 64.4295 43.6295 68.0831 37.9081C68.5422 37.1871 68.7848 36.3496 68.7822 35.4949C68.7796 34.6401 68.5318 33.8041 68.0683 33.086H68.0712ZM35.5 48.8125C31.9693 48.8125 28.5832 47.4099 26.0866 44.9134C23.59 42.4168 22.1875 39.0307 22.1875 35.5C22.1875 31.9693 23.59 28.5832 26.0866 26.0866C28.5832 23.5901 31.9693 22.1875 35.5 22.1875C39.0307 22.1875 42.4168 23.5901 44.9133 26.0866C47.4099 28.5832 48.8125 31.9693 48.8125 35.5C48.8125 39.0307 47.4099 42.4168 44.9133 44.9134C42.4168 47.4099 39.0307 48.8125 35.5 48.8125Z" fill="black"/>
</svg>
